HIERARCHY
ROOT Hips
{
  OFFSET 52.7254 93.9847 12.077
  CHANNELS 6 Xposition Yposition Zposition Zrotation Xrotation Yrotation
  JOINT spine
  {
    OFFSET 0 7.4756 0.429885
    CHANNELS 3 Zrotation Xrotation Yrotation
    JOINT spine1
    {
      OFFSET 0 9.92301 0
      CHANNELS 3 Zrotation Xrotation Yrotation
      JOINT spine2
      {
        OFFSET 0 9.50804 0
        CHANNELS 3 Zrotation Xrotation Yrotation
        JOINT Neck
        {
          OFFSET 0 24.4111 1.16384
          CHANNELS 3 Zrotation Xrotation Yrotation
          JOINT Head
          {
            OFFSET 0 7.37523 0
            CHANNELS 3 Zrotation Xrotation Yrotation
            End Site
            {
              OFFSET 0 17.8522 -5.88741
            }
          }
        }
        JOINT RightShoulder
        {
          OFFSET -4.00356 10.2679 -0.557468
          CHANNELS 3 Zrotation Xrotation Yrotation
          JOINT RightArm
          {
            OFFSET 0 13.4673 0
            CHANNELS 3 Zrotation Xrotation Yrotation
            JOINT RightArmRoll
            {
              OFFSET 0 6.79858 0
              CHANNELS 3 Zrotation Xrotation Yrotation
              JOINT RightForeArm
              {
                OFFSET 0 19.8018 0
                CHANNELS 3 Zrotation Xrotation Yrotation
                JOINT RightForeArmRoll
                {
                  OFFSET 0 7.62905 0
                  CHANNELS 3 Zrotation Xrotation Yrotation
                  JOINT RightHand
                  {
                    OFFSET 0 15.3098 0
                    CHANNELS 3 Zrotation Xrotation Yrotation
                    End Site
                    {
                      OFFSET 0 0 0
                    }
                  }
                }
              }
            }
          }
        }
        JOINT LeftShoulder
        {
          OFFSET 4.00356 10.2679 -0.557468
          CHANNELS 3 Zrotation Xrotation Yrotation
          JOINT LeftArm
          {
            OFFSET 0 13.4673 0
            CHANNELS 3 Zrotation Xrotation Yrotation
            JOINT LeftArmRoll
            {
              OFFSET 0 6.79858 0
              CHANNELS 3 Zrotation Xrotation Yrotation
              JOINT LeftForeArm
              {
                OFFSET 0 19.8018 0
                CHANNELS 3 Zrotation Xrotation Yrotation
                JOINT LeftForeArmRoll
                {
                  OFFSET 0 7.62905 0
                  CHANNELS 3 Zrotation Xrotation Yrotation
                  JOINT LeftHand
                  {
                    OFFSET 0 15.3098 0
                    CHANNELS 3 Zrotation Xrotation Yrotation
                    End Site
                    {
                      OFFSET 0 0 0
                    }
                  }
                }
              }
            }
          }
        }
      }
    }
  }
  JOINT RightUpLeg
  {
    OFFSET -6.6261 -1.21505 -1.01927
    CHANNELS 3 Zrotation Xrotation Yrotation
    JOINT RightUpLegRoll
    {
      OFFSET 0 17.9517 0
      CHANNELS 3 Zrotation Xrotation Yrotation
      JOINT RightLeg
      {
        OFFSET 0 -22.2304 0
        CHANNELS 3 Zrotation Xrotation Yrotation
        JOINT RightLegRoll
        {
          OFFSET 0 22.3032 0
          CHANNELS 3 Zrotation Xrotation Yrotation
          JOINT RightFoot
          {
            OFFSET 0 18.5636 0
            CHANNELS 3 Zrotation Xrotation Yrotation
            JOINT RightToeBase
            {
              OFFSET 0 15.5183 0
              CHANNELS 3 Zrotation Xrotation Yrotation
              End Site
              {
                OFFSET 0.00657761 7.51539 -0.866263
              }
            }
          }
        }
      }
    }
  }
  JOINT LeftUpLeg
  {
    OFFSET 6.6261 -1.21505 -1.01927
    CHANNELS 3 Zrotation Xrotation Yrotation
    JOINT LeftUpLegRoll
    {
      OFFSET 0 17.9518 0
      CHANNELS 3 Zrotation Xrotation Yrotation
      JOINT LeftLeg
      {
        OFFSET 0 22.2303 0
        CHANNELS 3 Zrotation Xrotation Yrotation
        JOINT LeftLegRoll
        {
          OFFSET 0 22.5093 0
          CHANNELS 3 Zrotation Xrotation Yrotation
          JOINT LeftFoot
          {
            OFFSET 0 18.3575 0
            CHANNELS 3 Zrotation Xrotation Yrotation
            JOINT LeftToeBase
            {
              OFFSET 0 15.5183 0
              CHANNELS 3 Zrotation Xrotation Yrotation
              End Site
              {
                OFFSET -0.029478 7.51539 -0.866262
              }
            }
          }
        }
      }
    }
  }
}
MOTION
Frames: 6
Frame Time: 0.00208333
54.7453 93.4403 10.4948 -0.995567 -0.93168 -0.66192 0.347457 -0.500609 0.143644 0.703878 3.00961 0.245696 0.701763 4.65461 0.234106 -8.56438 6.86386 -1.98537 8.15359 -1.43393 -2.92346 67.2529 -2.75698 -2.45165 99.4707 6.33159 24.0619 -3.72396e-005 1.5637e-006 3.8709e-006 4.55817 1.18367 -1.18329 2.82802e-006 -1.698e-007 -3.00632 8.02966 -4.95143 0.697659 -72.8582 -2.5797 2.83173 -97.9569 5.25469 -30.6555 1.63223e-006 7.62657e-009 -1.42479e-005 2.46535 7.85719 0.710483 4.85865e-006 8.38244e-006 3.00001 -8.03012 -4.95138 -0.697652 177.979 3.02496 -0.718362 -180 7.01538e-015 178.884 179.469 11.5074 179.469 3.75783e-006 -4.46949e-006 0.25592 -20.1053 69.5672 20.9456 8.1277 25.2331 -3.48399 -176.161 1.76482 1.48373 4.54188e-006 -4.6773e-006 -1.08194 -1.84671 -8.22585 0.151432 1.99343e-006 5.99787e-006 -0.0656516 17.8466 66.8293 -18.6273 -8.12516 25.2333 3.48291 
54.749 93.4412 10.4987 -0.997167 -0.874164 -0.672655 0.346079 -0.501753 0.145498 0.700734 3.00681 0.250793 0.698551 4.65181 0.239262 -8.55007 6.72014 -1.99827 8.14174 -1.38325 -2.9283 67.2375 -2.76007 -2.45195 99.4807 6.30766 23.9965 -3.72396e-005 1.5637e-006 3.8709e-006 4.60405 1.24314 -1.18507 2.82802e-006 -1.698e-007 -3.00632 8.02966 -4.95143 0.697659 -72.8219 -2.6038 2.83989 -97.9682 5.18592 -30.6208 1.63223e-006 7.62657e-009 -1.42479e-005 2.41155 8.0559 0.713914 4.85865e-006 8.38244e-006 3.00001 -8.03012 -4.95138 -0.697652 177.984 3.1203 -0.736675 -180 7.01538e-015 178.884 179.486 11.5784 179.464 3.75783e-006 -4.46949e-006 0.259001 -20.1312 69.5936 20.9717 8.1277 25.2331 -3.48399 -176.158 1.80826 1.48339 4.54188e-006 -4.6773e-006 -1.08117 -1.8495 -8.21415 0.151332 1.99343e-006 5.99787e-006 -0.0656289 17.8472 66.83 -18.6279 -8.12516 25.2333 3.48291 
54.7429 93.4444 10.5062 -0.998489 -0.816989 -0.683379 0.344661 -0.503042 0.147448 0.697525 3.00369 0.256169 0.695268 4.6487 0.244697 -8.53473 6.57958 -2.01141 8.12877 -1.33396 -2.93341 67.2231 -2.76301 -2.45226 99.4879 6.28398 23.9315 -3.72396e-005 1.5637e-006 3.8709e-006 4.65001 1.30158 -1.18673 2.82802e-006 -1.698e-007 -3.00632 8.02966 -4.95143 0.697659 -72.7859 -2.62737 2.84782 -97.9797 5.11517 -30.5867 1.63223e-006 7.62657e-009 -1.42479e-005 2.35751 8.25646 0.717234 4.85865e-006 8.38244e-006 3.00001 -8.03012 -4.95138 -0.697652 177.988 3.21523 -0.754717 -180 7.01538e-015 178.885 179.503 11.6494 179.46 3.75783e-006 -4.46949e-006 0.262131 -20.1581 69.6209 20.9989 8.1277 25.2331 -3.48399 -176.155 1.85046 1.48327 4.54188e-006 -4.6773e-006 -1.0804 -1.85237 -8.20102 0.151227 1.99343e-006 5.99787e-006 -0.0655952 17.8477 66.8307 -18.6285 -8.12516 25.2333 3.48291 
54.7419 93.4458 10.5093 -0.999612 -0.760055 -0.694096 0.343214 -0.504432 0.149465 0.69427 3.00036 0.26174 0.691934 4.64537 0.250329 -8.5187 6.44123 -2.02471 8.11502 -1.28564 -2.9387 67.2094 -2.76584 -2.45256 99.4932 6.26046 23.8668 -3.72396e-005 1.5637e-006 3.8709e-006 4.69604 1.35929 -1.18832 2.82802e-006 -1.698e-007 -3.00632 8.02966 -4.95143 0.697659 -72.7502 -2.65055 2.85558 -97.9911 5.04304 -30.5529 1.63223e-006 7.62656e-009 -1.42479e-005 2.30329 8.45831 0.720481 4.85865e-006 8.38244e-006 3.00001 -8.03012 -4.95138 -0.697652 177.991 3.30987 -0.772572 -180 7.01538e-015 178.885 179.52 11.7203 179.455 3.75783e-006 -4.46949e-006 0.265295 -20.1858 69.6488 21.0268 8.1277 25.2331 -3.48399 -176.152 1.8918 1.4833 4.54188e-006 -4.6773e-006 -1.07963 -1.8553 -8.18689 0.151118 1.99342e-006 5.99787e-006 -0.0655537 17.8482 66.8314 -18.6291 -8.12516 25.2333 3.48291 
54.7433 93.4427 10.5091 -1.00061 -0.703257 -0.704808 0.341751 -0.50588 0.151522 0.690989 2.99691 0.267421 0.688572 4.64192 0.256072 -8.50229 6.30414 -2.03812 8.10082 -1.23787 -2.9441 67.196 -2.76861 -2.45286 99.4974 6.23702 23.8024 -3.72396e-005 1.5637e-006 3.8709e-006 4.7421 1.41658 -1.18985 2.82802e-006 -1.698e-007 -3.00632 8.02966 -4.95143 0.697659 -72.7146 -2.67352 2.86324 -98.0026 4.97009 -30.5195 1.63223e-006 7.62657e-009 -1.42479e-005 2.24896 8.66091 0.723691 4.85865e-006 8.38244e-006 3.00001 -8.03012 -4.95138 -0.697652 177.995 3.40436 -0.790322 -180 7.01538e-015 178.886 179.537 11.7913 179.451 3.75783e-006 -4.46949e-006 0.268479 -20.2139 69.6772 21.0553 8.1277 25.2331 -3.48399 -176.149 1.93264 1.48341 4.54188e-006 -4.6773e-006 -1.07887 -1.85826 -8.17219 0.151008 1.99342e-006 5.99787e-006 -0.0655078 17.8487 66.8321 -18.6297 -8.12516 25.2333 3.48291 
54.7363 93.4435 10.5151 -1.00156 -0.646493 -0.71552 0.340284 -0.507343 0.153588 0.687703 2.99343 0.273131 0.685204 4.63844 0.261843 -8.48584 6.16736 -2.05156 8.08652 -1.19024 -2.94952 67.1827 -2.77136 -2.45316 99.5012 6.21357 23.7379 -3.72396e-005 1.5637e-006 3.8709e-006 4.78818 1.47377 -1.19138 2.82802e-006 -1.698e-007 -3.00632 8.02966 -4.95143 0.697659 -72.6791 -2.69644 2.87088 -98.014 4.89689 -30.4862 1.63223e-006 7.62657e-009 -1.42479e-005 2.19458 8.86368 0.726901 4.85865e-006 8.38244e-006 3.00001 -8.03012 -4.95138 -0.697652 177.998 3.4988 -0.80805 -180 7.01538e-015 178.886 179.554 11.8622 179.447 3.75783e-006 -4.46949e-006 0.271669 -20.2423 69.7056 21.0839 8.1277 25.2331 -3.48399 -176.146 1.97337 1.48355 4.54188e-006 -4.6773e-006 -1.0781 -1.86122 -8.15735 0.150897 1.99343e-006 5.99787e-006 -0.0654608 17.8492 66.8328 -18.6303 -8.12516 25.2333 3.48291 
